# xmcd
#
# Track frame offsets:
#	150
#	14700
#	28800
#	42450
#	57600
#	68550
#	79200
#	88050
#	102000
#	120300
#	127950
#	141300
#	153150
#	161250
#
# Disc length: 2344 seconds
#
# Revision: 2
# Processed by: cddbd v1.5.2PL0 Copyright (c) Steve Scherf et al.
# Submitted via: audiograbber 1.83.01
#
DISCID=b609260e
DTITLE=Various Artist - Country Songs For Kids
DYEAR=2006
DGENRE=Childrens
TTITLE0=These Boots Are Made For Walking
TTITLE1=Take Me Home Country Road
TTITLE2=Cotton Eyed Joe
TTITLE3=Achy Breaky Heart
TTITLE4=On The Road Again
TTITLE5=Hillbilly Cowboy
TTITLE6=Road To Gundagai
TTITLE7=Down On The Farm
TTITLE8=Sweet Home Alabama
TTITLE9=Heel And Toe Polka
TTITLE10=Raw Hide
TTITLE11=Thank God I'm A Country Boy
TTITLE12=I'd Like To Teach The World To Sing
TTITLE13=5, 6, 7, 8 (Boot Scootin' Boogie)
EXTD=
EXTT0=
EXTT1=
EXTT2=
EXTT3=
EXTT4=
EXTT5=
EXTT6=
EXTT7=
EXTT8=
EXTT9=
EXTT10=
EXTT11=
EXTT12=
EXTT13=
PLAYORDER=
